<svg width="200" height="200" fill="#70C041" xmlns="http://www.w3.org/2000/svg" xmlns:xlink="http://www.w3.org/1999/xlink" version="1.1" x="0px" y="0px" viewBox="0 0 100 100" enable-background="new 0 0 100 100" xml:space="preserve"><g><path d="M84.202,16.572C67.557,16.081,57.128,9.526,52.566,5.85c-1.306-1.055-3.312-1.145-4.678-0.178   c-4.797,3.374-16.44,10.292-32.15,10.883c-1.673,0.074-3.078,1.397-3.113,3.067c-0.137,6.434-0.293,21.864,0.932,34.303   c2.649,15.859,26.22,34.589,33.996,40.328c1.349,0.996,3.605,0.996,4.954,0c7.776-5.739,31.349-24.469,33.998-40.328   c1.223-12.438,0.996-27.869,0.824-34.303C87.285,17.952,85.875,16.62,84.202,16.572z M60.16,47.386l2.395,13.982L50,54.769   l-12.555,6.6l2.395-13.982l-10.164-9.908l14.047-2.037L50,22.71l6.277,12.73l14.045,2.037L60.16,47.386z"/></g></svg>